<svg width="15" height="15" viewBox="0 0 15 15" fill="none" xmlns="http://www.w3.org/2000/svg">
<path d="M14.0904 7.66027C14.1111 8.90487 13.8429 10.1373 13.3071 11.2603C12.8884 12.1256 12.2847 12.8878 11.5387 13.4927C10.7927 14.0976 9.92293 14.5304 8.99113 14.7603C8.11255 14.9899 7.20022 15.061 6.29679 14.9703C5.43093 14.8971 4.58558 14.6667 3.80202 14.2903C3.00809 13.9023 2.29999 13.3586 1.71974 12.6912C1.13949 12.0238 0.698904 11.2465 0.424118 10.4053C0.10591 9.47125 -0.0378592 8.48649 8.86526e-06 7.50027C0.0177897 6.62287 0.186586 5.75513 0.498961 4.93527C0.886731 3.83532 1.56061 2.85912 2.45095 2.10755C3.34128 1.35599 4.41577 0.856347 5.56333 0.660268C6.89373 0.381573 8.27512 0.476744 9.55494 0.93527C10.5094 1.26418 11.375 1.80998 12.0839 2.52994C12.7928 3.24989 13.3259 4.12449 13.6414 5.08527C13.872 5.73937 14.0098 6.42273 14.0505 7.11527C14.0705 7.32027 14.0854 7.54527 14.0904 7.66027ZM11.6855 7.61027C11.6813 7.25762 11.6446 6.90612 11.5757 6.56027C11.4739 5.93964 11.2591 5.34305 10.942 4.80027C10.6641 4.30779 10.2897 3.87673 9.84123 3.53303C9.39278 3.18932 8.87958 2.94007 8.33251 2.80027C7.51462 2.58636 6.65564 2.58636 5.83775 2.80027C4.8765 3.03475 4.02849 3.60128 3.44278 4.40027C3.0451 4.92213 2.7566 5.51904 2.59456 6.15527C2.41528 6.87559 2.3596 7.62123 2.42991 8.36027C2.47854 8.9935 2.63374 9.61392 2.88894 10.1953C3.12023 10.7531 3.46646 11.2556 3.90497 11.6701C4.34348 12.0845 4.86439 12.4015 5.4336 12.6003C6.11915 12.8443 6.85168 12.9265 7.5741 12.8403C8.37753 12.7693 9.14548 12.476 9.79219 11.9931C10.4389 11.5101 10.9389 10.8565 11.2364 10.1053C11.553 9.31261 11.7058 8.46381 11.6855 7.61027Z" fill="black"/>
</svg>
